<svg xmlns="http://www.w3.org/2000/svg" version="1.1" xmlns:xlink="http://www.w3.org/1999/xlink" xmlns:svgjs="http://svgjs.dev/svgjs" width="1900" height="1296" preserveAspectRatio="none" viewBox="0 0 1900 1296"><g mask="url(&quot;#SvgjsMask1010&quot;)" fill="none"><rect width="1900" height="1296" x="0" y="0" fill="#0e2a47"></rect><path d="M89.88 290.02L154.84 327.52L154.84 402.52L89.88 440.02L24.93 402.52L24.93 327.52zM89.88 515.02L154.84 552.52L154.84 627.52L89.88 665.02L24.93 627.52L24.93 552.52zM24.93 627.52L89.88 665.02L89.88 740.02L24.93 777.52L-40.02 740.02L-40.02 665.02zM24.93 852.52L89.88 890.02L89.88 965.02L24.93 1002.52L-40.02 965.02L-40.02 890.02zM24.93 1302.52L89.88 1340.02L89.88 1415.02L24.93 1452.52L-40.02 1415.02L-40.02 1340.02zM219.79 290.02L284.75 327.52L284.75 402.52L219.79 440.02L154.84 402.52L154.84 327.52zM154.84 402.52L219.79 440.02L219.79 515.02L154.84 552.52L89.88 515.02L89.88 440.02zM219.79 965.02L284.75 1002.52L284.75 1077.52L219.79 1115.02L154.84 1077.52L154.84 1002.52zM349.7 290.02L414.65 327.52L414.65 402.52L349.7 440.02L284.75 402.52L284.75 327.52zM284.75 402.52L349.7 440.02L349.7 515.02L284.75 552.52L219.79 515.02L219.79 440.02zM349.7 515.02L414.65 552.52L414.65 627.52L349.7 665.02L284.75 627.52L284.75 552.52zM349.7 1190.02L414.65 1227.52L414.65 1302.52L349.7 1340.02L284.75 1302.52L284.75 1227.52zM414.65 -47.48L479.61 -9.98L479.61 65.02L414.65 102.52L349.7 65.02L349.7 -9.98zM479.61 65.02L544.56 102.52L544.56 177.52L479.61 215.02L414.65 177.52L414.65 102.52zM479.61 290.02L544.56 327.52L544.56 402.52L479.61 440.02L414.65 402.52L414.65 327.52zM414.65 852.52L479.61 890.02L479.61 965.02L414.65 1002.52L349.7 965.02L349.7 890.02zM414.65 1302.52L479.61 1340.02L479.61 1415.02L414.65 1452.52L349.7 1415.02L349.7 1340.02zM609.51 290.02L674.47 327.52L674.47 402.52L609.51 440.02L544.56 402.52L544.56 327.52zM609.51 965.02L674.47 1002.52L674.47 1077.52L609.51 1115.02L544.56 1077.52L544.56 1002.52zM609.51 1190.02L674.47 1227.52L674.47 1302.52L609.51 1340.02L544.56 1302.52L544.56 1227.52zM739.42 515.02L804.38 552.52L804.38 627.52L739.42 665.02L674.47 627.52L674.47 552.52zM739.42 740.02L804.38 777.52L804.38 852.52L739.42 890.02L674.47 852.52L674.47 777.52zM739.42 1190.02L804.38 1227.52L804.38 1302.52L739.42 1340.02L674.47 1302.52L674.47 1227.52zM869.33 515.02L934.28 552.52L934.28 627.52L869.33 665.02L804.37 627.52L804.37 552.52zM869.33 740.02L934.28 777.52L934.28 852.52L869.33 890.02L804.37 852.52L804.37 777.52zM934.28 -47.48L999.24 -9.98L999.24 65.02L934.28 102.52L869.33 65.02L869.33 -9.98zM999.24 290.02L1064.19 327.52L1064.19 402.52L999.24 440.02L934.28 402.52L934.28 327.52zM999.24 515.02L1064.19 552.52L1064.19 627.52L999.24 665.02L934.28 627.52L934.28 552.52zM999.24 740.02L1064.19 777.52L1064.19 852.52L999.24 890.02L934.28 852.52L934.28 777.52zM934.28 1077.52L999.24 1115.02L999.24 1190.02L934.28 1227.52L869.33 1190.02L869.33 1115.02zM999.24 1190.02L1064.19 1227.52L1064.19 1302.52L999.24 1340.02L934.28 1302.52L934.28 1227.52zM1064.19 -47.48L1129.14 -9.98L1129.14 65.02L1064.19 102.52L999.24 65.02L999.24 -9.98zM1064.19 402.52L1129.14 440.02L1129.14 515.02L1064.19 552.52L999.24 515.02L999.24 440.02zM1129.14 515.02L1194.1 552.52L1194.1 627.52L1129.14 665.02L1064.19 627.52L1064.19 552.52zM1129.14 740.02L1194.1 777.52L1194.1 852.52L1129.14 890.02L1064.19 852.52L1064.19 777.52zM1129.14 965.02L1194.1 1002.52L1194.1 1077.52L1129.14 1115.02L1064.19 1077.52L1064.19 1002.52zM1064.19 1302.52L1129.14 1340.02L1129.14 1415.02L1064.19 1452.52L999.24 1415.02L999.24 1340.02zM1194.1 177.52L1259.05 215.02L1259.05 290.02L1194.1 327.52L1129.14 290.02L1129.14 215.02zM1259.05 290.02L1324 327.52L1324 402.52L1259.05 440.02L1194.1 402.52L1194.1 327.52zM1259.05 515.02L1324 552.52L1324 627.52L1259.05 665.02L1194.1 627.52L1194.1 552.52zM1259.05 740.02L1324 777.52L1324 852.52L1259.05 890.02L1194.1 852.52L1194.1 777.52zM1194.1 852.52L1259.05 890.02L1259.05 965.02L1194.1 1002.52L1129.14 965.02L1129.14 890.02zM1194.1 1077.52L1259.05 1115.02L1259.05 1190.02L1194.1 1227.52L1129.14 1190.02L1129.14 1115.02zM1194.1 1302.52L1259.05 1340.02L1259.05 1415.02L1194.1 1452.52L1129.14 1415.02L1129.14 1340.02zM1388.96 290.02L1453.91 327.52L1453.91 402.52L1388.96 440.02L1324.01 402.52L1324.01 327.52zM1388.96 515.02L1453.91 552.52L1453.91 627.52L1388.96 665.02L1324.01 627.52L1324.01 552.52zM1388.96 740.02L1453.91 777.52L1453.91 852.52L1388.96 890.02L1324.01 852.52L1324.01 777.52zM1324.01 1302.52L1388.96 1340.02L1388.96 1415.02L1324.01 1452.52L1259.05 1415.02L1259.05 1340.02zM1518.87 65.02L1583.82 102.52L1583.82 177.52L1518.87 215.02L1453.91 177.52L1453.91 102.52zM1453.91 402.52L1518.87 440.02L1518.87 515.02L1453.91 552.52L1388.96 515.02L1388.96 440.02zM1648.77 65.02L1713.73 102.52L1713.73 177.52L1648.77 215.02L1583.82 177.52L1583.82 102.52zM1583.82 627.52L1648.77 665.02L1648.77 740.02L1583.82 777.52L1518.87 740.02L1518.87 665.02zM1648.77 740.02L1713.73 777.52L1713.73 852.52L1648.77 890.02L1583.82 852.52L1583.82 777.52zM1583.82 1302.52L1648.77 1340.02L1648.77 1415.02L1583.82 1452.52L1518.87 1415.02L1518.87 1340.02zM1713.73 -47.48L1778.68 -9.98L1778.68 65.02L1713.73 102.52L1648.77 65.02L1648.77 -9.98zM1713.73 177.52L1778.68 215.02L1778.68 290.02L1713.73 327.52L1648.77 290.02L1648.77 215.02zM1778.68 290.02L1843.63 327.52L1843.63 402.52L1778.68 440.02L1713.73 402.52L1713.73 327.52zM1713.73 402.52L1778.68 440.02L1778.68 515.02L1713.73 552.52L1648.77 515.02L1648.77 440.02zM1713.73 852.52L1778.68 890.02L1778.68 965.02L1713.73 1002.52L1648.77 965.02L1648.77 890.02zM1713.73 1077.52L1778.68 1115.02L1778.68 1190.02L1713.73 1227.52L1648.77 1190.02L1648.77 1115.02zM1713.73 1302.52L1778.68 1340.02L1778.68 1415.02L1713.73 1452.52L1648.77 1415.02L1648.77 1340.02zM1908.59 290.02L1973.54 327.52L1973.54 402.52L1908.59 440.02L1843.63 402.52L1843.63 327.52zM1908.59 515.02L1973.54 552.52L1973.54 627.52L1908.59 665.02L1843.63 627.52L1843.63 552.52zM1908.59 740.02L1973.54 777.52L1973.54 852.52L1908.59 890.02L1843.63 852.52L1843.63 777.52zM1843.63 852.52L1908.59 890.02L1908.59 965.02L1843.63 1002.52L1778.68 965.02L1778.68 890.02zM1843.63 1302.52L1908.59 1340.02L1908.59 1415.02L1843.63 1452.52L1778.68 1415.02L1778.68 1340.02z" stroke="#03305d" stroke-width="2"></path><path d="M82.38 290.02 a7.5 7.5 0 1 0 15 0 a7.5 7.5 0 1 0 -15 0zM147.34 327.52 a7.5 7.5 0 1 0 15 0 a7.5 7.5 0 1 0 -15 0zM147.34 402.52 a7.5 7.5 0 1 0 15 0 a7.5 7.5 0 1 0 -15 0zM82.38 440.02 a7.5 7.5 0 1 0 15 0 a7.5 7.5 0 1 0 -15 0zM17.43 402.52 a7.5 7.5 0 1 0 15 0 a7.5 7.5 0 1 0 -15 0zM17.43 327.52 a7.5 7.5 0 1 0 15 0 a7.5 7.5 0 1 0 -15 0zM82.38 515.02 a7.5 7.5 0 1 0 15 0 a7.5 7.5 0 1 0 -15 0zM147.34 552.52 a7.5 7.5 0 1 0 15 0 a7.5 7.5 0 1 0 -15 0zM147.34 627.52 a7.5 7.5 0 1 0 15 0 a7.5 7.5 0 1 0 -15 0zM82.38 665.02 a7.5 7.5 0 1 0 15 0 a7.5 7.5 0 1 0 -15 0zM17.43 627.52 a7.5 7.5 0 1 0 15 0 a7.5 7.5 0 1 0 -15 0zM17.43 552.52 a7.5 7.5 0 1 0 15 0 a7.5 7.5 0 1 0 -15 0zM82.38 740.02 a7.5 7.5 0 1 0 15 0 a7.5 7.5 0 1 0 -15 0zM17.43 777.52 a7.5 7.5 0 1 0 15 0 a7.5 7.5 0 1 0 -15 0zM-47.52 740.02 a7.5 7.5 0 1 0 15 0 a7.5 7.5 0 1 0 -15 0zM-47.52 665.02 a7.5 7.5 0 1 0 15 0 a7.5 7.5 0 1 0 -15 0zM17.43 852.52 a7.5 7.5 0 1 0 15 0 a7.5 7.5 0 1 0 -15 0zM82.38 890.02 a7.5 7.5 0 1 0 15 0 a7.5 7.5 0 1 0 -15 0zM82.38 965.02 a7.5 7.5 0 1 0 15 0 a7.5 7.5 0 1 0 -15 0zM17.43 1002.52 a7.5 7.5 0 1 0 15 0 a7.5 7.5 0 1 0 -15 0zM-47.52 965.02 a7.5 7.5 0 1 0 15 0 a7.5 7.5 0 1 0 -15 0zM-47.52 890.02 a7.5 7.5 0 1 0 15 0 a7.5 7.5 0 1 0 -15 0zM17.43 1302.52 a7.5 7.5 0 1 0 15 0 a7.5 7.5 0 1 0 -15 0zM82.38 1340.02 a7.5 7.5 0 1 0 15 0 a7.5 7.5 0 1 0 -15 0zM82.38 1415.02 a7.5 7.5 0 1 0 15 0 a7.5 7.5 0 1 0 -15 0zM17.43 1452.52 a7.5 7.5 0 1 0 15 0 a7.5 7.5 0 1 0 -15 0zM-47.52 1415.02 a7.5 7.5 0 1 0 15 0 a7.5 7.5 0 1 0 -15 0zM-47.52 1340.02 a7.5 7.5 0 1 0 15 0 a7.5 7.5 0 1 0 -15 0zM212.29 290.02 a7.5 7.5 0 1 0 15 0 a7.5 7.5 0 1 0 -15 0zM277.25 327.52 a7.5 7.5 0 1 0 15 0 a7.5 7.5 0 1 0 -15 0zM277.25 402.52 a7.5 7.5 0 1 0 15 0 a7.5 7.5 0 1 0 -15 0zM212.29 440.02 a7.5 7.5 0 1 0 15 0 a7.5 7.5 0 1 0 -15 0zM212.29 515.02 a7.5 7.5 0 1 0 15 0 a7.5 7.5 0 1 0 -15 0zM212.29 965.02 a7.5 7.5 0 1 0 15 0 a7.5 7.5 0 1 0 -15 0zM277.25 1002.52 a7.5 7.5 0 1 0 15 0 a7.5 7.5 0 1 0 -15 0zM277.25 1077.52 a7.5 7.5 0 1 0 15 0 a7.5 7.5 0 1 0 -15 0zM212.29 1115.02 a7.5 7.5 0 1 0 15 0 a7.5 7.5 0 1 0 -15 0zM147.34 1077.52 a7.5 7.5 0 1 0 15 0 a7.5 7.5 0 1 0 -15 0zM147.34 1002.52 a7.5 7.5 0 1 0 15 0 a7.5 7.5 0 1 0 -15 0zM342.2 290.02 a7.5 7.5 0 1 0 15 0 a7.5 7.5 0 1 0 -15 0zM407.15 327.52 a7.5 7.5 0 1 0 15 0 a7.5 7.5 0 1 0 -15 0zM407.15 402.52 a7.5 7.5 0 1 0 15 0 a7.5 7.5 0 1 0 -15 0zM342.2 440.02 a7.5 7.5 0 1 0 15 0 a7.5 7.5 0 1 0 -15 0zM342.2 515.02 a7.5 7.5 0 1 0 15 0 a7.5 7.5 0 1 0 -15 0zM277.25 552.52 a7.5 7.5 0 1 0 15 0 a7.5 7.5 0 1 0 -15 0zM407.15 552.52 a7.5 7.5 0 1 0 15 0 a7.5 7.5 0 1 0 -15 0zM407.15 627.52 a7.5 7.5 0 1 0 15 0 a7.5 7.5 0 1 0 -15 0zM342.2 665.02 a7.5 7.5 0 1 0 15 0 a7.5 7.5 0 1 0 -15 0zM277.25 627.52 a7.5 7.5 0 1 0 15 0 a7.5 7.5 0 1 0 -15 0zM342.2 1190.02 a7.5 7.5 0 1 0 15 0 a7.5 7.5 0 1 0 -15 0zM407.15 1227.52 a7.5 7.5 0 1 0 15 0 a7.5 7.5 0 1 0 -15 0zM407.15 1302.52 a7.5 7.5 0 1 0 15 0 a7.5 7.5 0 1 0 -15 0zM342.2 1340.02 a7.5 7.5 0 1 0 15 0 a7.5 7.5 0 1 0 -15 0zM277.25 1302.52 a7.5 7.5 0 1 0 15 0 a7.5 7.5 0 1 0 -15 0zM277.25 1227.52 a7.5 7.5 0 1 0 15 0 a7.5 7.5 0 1 0 -15 0zM407.15 -47.48 a7.5 7.5 0 1 0 15 0 a7.5 7.5 0 1 0 -15 0zM472.11 -9.98 a7.5 7.5 0 1 0 15 0 a7.5 7.5 0 1 0 -15 0zM472.11 65.02 a7.5 7.5 0 1 0 15 0 a7.5 7.5 0 1 0 -15 0zM407.15 102.52 a7.5 7.5 0 1 0 15 0 a7.5 7.5 0 1 0 -15 0zM342.2 65.02 a7.5 7.5 0 1 0 15 0 a7.5 7.5 0 1 0 -15 0zM342.2 -9.98 a7.5 7.5 0 1 0 15 0 a7.5 7.5 0 1 0 -15 0zM537.06 102.52 a7.5 7.5 0 1 0 15 0 a7.5 7.5 0 1 0 -15 0zM537.06 177.52 a7.5 7.5 0 1 0 15 0 a7.5 7.5 0 1 0 -15 0zM472.11 215.02 a7.5 7.5 0 1 0 15 0 a7.5 7.5 0 1 0 -15 0zM407.15 177.52 a7.5 7.5 0 1 0 15 0 a7.5 7.5 0 1 0 -15 0zM472.11 290.02 a7.5 7.5 0 1 0 15 0 a7.5 7.5 0 1 0 -15 0zM537.06 327.52 a7.5 7.5 0 1 0 15 0 a7.5 7.5 0 1 0 -15 0zM537.06 402.52 a7.5 7.5 0 1 0 15 0 a7.5 7.5 0 1 0 -15 0zM472.11 440.02 a7.5 7.5 0 1 0 15 0 a7.5 7.5 0 1 0 -15 0zM407.15 852.52 a7.5 7.5 0 1 0 15 0 a7.5 7.5 0 1 0 -15 0zM472.11 890.02 a7.5 7.5 0 1 0 15 0 a7.5 7.5 0 1 0 -15 0zM472.11 965.02 a7.5 7.5 0 1 0 15 0 a7.5 7.5 0 1 0 -15 0zM407.15 1002.52 a7.5 7.5 0 1 0 15 0 a7.5 7.5 0 1 0 -15 0zM342.2 965.02 a7.5 7.5 0 1 0 15 0 a7.5 7.5 0 1 0 -15 0zM342.2 890.02 a7.5 7.5 0 1 0 15 0 a7.5 7.5 0 1 0 -15 0zM472.11 1340.02 a7.5 7.5 0 1 0 15 0 a7.5 7.5 0 1 0 -15 0zM472.11 1415.02 a7.5 7.5 0 1 0 15 0 a7.5 7.5 0 1 0 -15 0zM407.15 1452.52 a7.5 7.5 0 1 0 15 0 a7.5 7.5 0 1 0 -15 0zM342.2 1415.02 a7.5 7.5 0 1 0 15 0 a7.5 7.5 0 1 0 -15 0zM602.01 290.02 a7.5 7.5 0 1 0 15 0 a7.5 7.5 0 1 0 -15 0zM666.97 327.52 a7.5 7.5 0 1 0 15 0 a7.5 7.5 0 1 0 -15 0zM666.97 402.52 a7.5 7.5 0 1 0 15 0 a7.5 7.5 0 1 0 -15 0zM602.01 440.02 a7.5 7.5 0 1 0 15 0 a7.5 7.5 0 1 0 -15 0zM602.01 965.02 a7.5 7.5 0 1 0 15 0 a7.5 7.5 0 1 0 -15 0zM666.97 1002.52 a7.5 7.5 0 1 0 15 0 a7.5 7.5 0 1 0 -15 0zM666.97 1077.52 a7.5 7.5 0 1 0 15 0 a7.5 7.5 0 1 0 -15 0zM602.01 1115.02 a7.5 7.5 0 1 0 15 0 a7.5 7.5 0 1 0 -15 0zM537.06 1077.52 a7.5 7.5 0 1 0 15 0 a7.5 7.5 0 1 0 -15 0zM537.06 1002.52 a7.5 7.5 0 1 0 15 0 a7.5 7.5 0 1 0 -15 0zM602.01 1190.02 a7.5 7.5 0 1 0 15 0 a7.5 7.5 0 1 0 -15 0zM666.97 1227.52 a7.5 7.5 0 1 0 15 0 a7.5 7.5 0 1 0 -15 0zM666.97 1302.52 a7.5 7.5 0 1 0 15 0 a7.5 7.5 0 1 0 -15 0zM602.01 1340.02 a7.5 7.5 0 1 0 15 0 a7.5 7.5 0 1 0 -15 0zM537.06 1302.52 a7.5 7.5 0 1 0 15 0 a7.5 7.5 0 1 0 -15 0zM537.06 1227.52 a7.5 7.5 0 1 0 15 0 a7.5 7.5 0 1 0 -15 0zM731.92 515.02 a7.5 7.5 0 1 0 15 0 a7.5 7.5 0 1 0 -15 0zM796.88 552.52 a7.5 7.5 0 1 0 15 0 a7.5 7.5 0 1 0 -15 0zM796.88 627.52 a7.5 7.5 0 1 0 15 0 a7.5 7.5 0 1 0 -15 0zM731.92 665.02 a7.5 7.5 0 1 0 15 0 a7.5 7.5 0 1 0 -15 0zM666.97 627.52 a7.5 7.5 0 1 0 15 0 a7.5 7.5 0 1 0 -15 0zM666.97 552.52 a7.5 7.5 0 1 0 15 0 a7.5 7.5 0 1 0 -15 0zM731.92 740.02 a7.5 7.5 0 1 0 15 0 a7.5 7.5 0 1 0 -15 0zM796.88 777.52 a7.5 7.5 0 1 0 15 0 a7.5 7.5 0 1 0 -15 0zM796.88 852.52 a7.5 7.5 0 1 0 15 0 a7.5 7.5 0 1 0 -15 0zM731.92 890.02 a7.5 7.5 0 1 0 15 0 a7.5 7.5 0 1 0 -15 0zM666.97 852.52 a7.5 7.5 0 1 0 15 0 a7.5 7.5 0 1 0 -15 0zM666.97 777.52 a7.5 7.5 0 1 0 15 0 a7.5 7.5 0 1 0 -15 0zM731.92 1190.02 a7.5 7.5 0 1 0 15 0 a7.5 7.5 0 1 0 -15 0zM796.88 1227.52 a7.5 7.5 0 1 0 15 0 a7.5 7.5 0 1 0 -15 0zM796.88 1302.52 a7.5 7.5 0 1 0 15 0 a7.5 7.5 0 1 0 -15 0zM731.92 1340.02 a7.5 7.5 0 1 0 15 0 a7.5 7.5 0 1 0 -15 0zM861.83 515.02 a7.5 7.5 0 1 0 15 0 a7.5 7.5 0 1 0 -15 0zM926.78 552.52 a7.5 7.5 0 1 0 15 0 a7.5 7.5 0 1 0 -15 0zM926.78 627.52 a7.5 7.5 0 1 0 15 0 a7.5 7.5 0 1 0 -15 0zM861.83 665.02 a7.5 7.5 0 1 0 15 0 a7.5 7.5 0 1 0 -15 0zM796.87 627.52 a7.5 7.5 0 1 0 15 0 a7.5 7.5 0 1 0 -15 0zM796.87 552.52 a7.5 7.5 0 1 0 15 0 a7.5 7.5 0 1 0 -15 0zM861.83 740.02 a7.5 7.5 0 1 0 15 0 a7.5 7.5 0 1 0 -15 0zM926.78 777.52 a7.5 7.5 0 1 0 15 0 a7.5 7.5 0 1 0 -15 0zM926.78 852.52 a7.5 7.5 0 1 0 15 0 a7.5 7.5 0 1 0 -15 0zM861.83 890.02 a7.5 7.5 0 1 0 15 0 a7.5 7.5 0 1 0 -15 0zM796.87 852.52 a7.5 7.5 0 1 0 15 0 a7.5 7.5 0 1 0 -15 0zM796.87 777.52 a7.5 7.5 0 1 0 15 0 a7.5 7.5 0 1 0 -15 0zM926.78 -47.48 a7.5 7.5 0 1 0 15 0 a7.5 7.5 0 1 0 -15 0zM991.74 -9.98 a7.5 7.5 0 1 0 15 0 a7.5 7.5 0 1 0 -15 0zM991.74 65.02 a7.5 7.5 0 1 0 15 0 a7.5 7.5 0 1 0 -15 0zM926.78 102.52 a7.5 7.5 0 1 0 15 0 a7.5 7.5 0 1 0 -15 0zM861.83 65.02 a7.5 7.5 0 1 0 15 0 a7.5 7.5 0 1 0 -15 0zM861.83 -9.98 a7.5 7.5 0 1 0 15 0 a7.5 7.5 0 1 0 -15 0zM991.74 290.02 a7.5 7.5 0 1 0 15 0 a7.5 7.5 0 1 0 -15 0zM1056.69 327.52 a7.5 7.5 0 1 0 15 0 a7.5 7.5 0 1 0 -15 0zM1056.69 402.52 a7.5 7.5 0 1 0 15 0 a7.5 7.5 0 1 0 -15 0zM991.74 440.02 a7.5 7.5 0 1 0 15 0 a7.5 7.5 0 1 0 -15 0zM926.78 402.52 a7.5 7.5 0 1 0 15 0 a7.5 7.5 0 1 0 -15 0zM926.78 327.52 a7.5 7.5 0 1 0 15 0 a7.5 7.5 0 1 0 -15 0zM991.74 515.02 a7.5 7.5 0 1 0 15 0 a7.5 7.5 0 1 0 -15 0zM1056.69 552.52 a7.5 7.5 0 1 0 15 0 a7.5 7.5 0 1 0 -15 0zM1056.69 627.52 a7.5 7.5 0 1 0 15 0 a7.5 7.5 0 1 0 -15 0zM991.74 665.02 a7.5 7.5 0 1 0 15 0 a7.5 7.5 0 1 0 -15 0zM991.74 740.02 a7.5 7.5 0 1 0 15 0 a7.5 7.5 0 1 0 -15 0zM1056.69 777.52 a7.5 7.5 0 1 0 15 0 a7.5 7.5 0 1 0 -15 0zM1056.69 852.52 a7.5 7.5 0 1 0 15 0 a7.5 7.5 0 1 0 -15 0zM991.74 890.02 a7.5 7.5 0 1 0 15 0 a7.5 7.5 0 1 0 -15 0zM926.78 1077.52 a7.5 7.5 0 1 0 15 0 a7.5 7.5 0 1 0 -15 0zM991.74 1115.02 a7.5 7.5 0 1 0 15 0 a7.5 7.5 0 1 0 -15 0zM991.74 1190.02 a7.5 7.5 0 1 0 15 0 a7.5 7.5 0 1 0 -15 0zM926.78 1227.52 a7.5 7.5 0 1 0 15 0 a7.5 7.5 0 1 0 -15 0zM861.83 1190.02 a7.5 7.5 0 1 0 15 0 a7.5 7.5 0 1 0 -15 0zM861.83 1115.02 a7.5 7.5 0 1 0 15 0 a7.5 7.5 0 1 0 -15 0zM1056.69 1227.52 a7.5 7.5 0 1 0 15 0 a7.5 7.5 0 1 0 -15 0zM1056.69 1302.52 a7.5 7.5 0 1 0 15 0 a7.5 7.5 0 1 0 -15 0zM991.74 1340.02 a7.5 7.5 0 1 0 15 0 a7.5 7.5 0 1 0 -15 0zM926.78 1302.52 a7.5 7.5 0 1 0 15 0 a7.5 7.5 0 1 0 -15 0zM1056.69 -47.48 a7.5 7.5 0 1 0 15 0 a7.5 7.5 0 1 0 -15 0zM1121.64 -9.98 a7.5 7.5 0 1 0 15 0 a7.5 7.5 0 1 0 -15 0zM1121.64 65.02 a7.5 7.5 0 1 0 15 0 a7.5 7.5 0 1 0 -15 0zM1056.69 102.52 a7.5 7.5 0 1 0 15 0 a7.5 7.5 0 1 0 -15 0zM1121.64 440.02 a7.5 7.5 0 1 0 15 0 a7.5 7.5 0 1 0 -15 0zM1121.64 515.02 a7.5 7.5 0 1 0 15 0 a7.5 7.5 0 1 0 -15 0zM1186.6 552.52 a7.5 7.5 0 1 0 15 0 a7.5 7.5 0 1 0 -15 0zM1186.6 627.52 a7.5 7.5 0 1 0 15 0 a7.5 7.5 0 1 0 -15 0zM1121.64 665.02 a7.5 7.5 0 1 0 15 0 a7.5 7.5 0 1 0 -15 0zM1121.64 740.02 a7.5 7.5 0 1 0 15 0 a7.5 7.5 0 1 0 -15 0zM1186.6 777.52 a7.5 7.5 0 1 0 15 0 a7.5 7.5 0 1 0 -15 0zM1186.6 852.52 a7.5 7.5 0 1 0 15 0 a7.5 7.5 0 1 0 -15 0zM1121.64 890.02 a7.5 7.5 0 1 0 15 0 a7.5 7.5 0 1 0 -15 0zM1121.64 965.02 a7.5 7.5 0 1 0 15 0 a7.5 7.5 0 1 0 -15 0zM1186.6 1002.52 a7.5 7.5 0 1 0 15 0 a7.5 7.5 0 1 0 -15 0zM1186.6 1077.52 a7.5 7.5 0 1 0 15 0 a7.5 7.5 0 1 0 -15 0zM1121.64 1115.02 a7.5 7.5 0 1 0 15 0 a7.5 7.5 0 1 0 -15 0zM1056.69 1077.52 a7.5 7.5 0 1 0 15 0 a7.5 7.5 0 1 0 -15 0zM1056.69 1002.52 a7.5 7.5 0 1 0 15 0 a7.5 7.5 0 1 0 -15 0zM1121.64 1340.02 a7.5 7.5 0 1 0 15 0 a7.5 7.5 0 1 0 -15 0zM1121.64 1415.02 a7.5 7.5 0 1 0 15 0 a7.5 7.5 0 1 0 -15 0zM1056.69 1452.52 a7.5 7.5 0 1 0 15 0 a7.5 7.5 0 1 0 -15 0zM991.74 1415.02 a7.5 7.5 0 1 0 15 0 a7.5 7.5 0 1 0 -15 0zM1186.6 177.52 a7.5 7.5 0 1 0 15 0 a7.5 7.5 0 1 0 -15 0zM1251.55 215.02 a7.5 7.5 0 1 0 15 0 a7.5 7.5 0 1 0 -15 0zM1251.55 290.02 a7.5 7.5 0 1 0 15 0 a7.5 7.5 0 1 0 -15 0zM1186.6 327.52 a7.5 7.5 0 1 0 15 0 a7.5 7.5 0 1 0 -15 0zM1121.64 290.02 a7.5 7.5 0 1 0 15 0 a7.5 7.5 0 1 0 -15 0zM1121.64 215.02 a7.5 7.5 0 1 0 15 0 a7.5 7.5 0 1 0 -15 0zM1316.5 327.52 a7.5 7.5 0 1 0 15 0 a7.5 7.5 0 1 0 -15 0zM1316.5 402.52 a7.5 7.5 0 1 0 15 0 a7.5 7.5 0 1 0 -15 0zM1251.55 440.02 a7.5 7.5 0 1 0 15 0 a7.5 7.5 0 1 0 -15 0zM1186.6 402.52 a7.5 7.5 0 1 0 15 0 a7.5 7.5 0 1 0 -15 0zM1251.55 515.02 a7.5 7.5 0 1 0 15 0 a7.5 7.5 0 1 0 -15 0zM1316.5 552.52 a7.5 7.5 0 1 0 15 0 a7.5 7.5 0 1 0 -15 0zM1316.5 627.52 a7.5 7.5 0 1 0 15 0 a7.5 7.5 0 1 0 -15 0zM1251.55 665.02 a7.5 7.5 0 1 0 15 0 a7.5 7.5 0 1 0 -15 0zM1251.55 740.02 a7.5 7.5 0 1 0 15 0 a7.5 7.5 0 1 0 -15 0zM1316.5 777.52 a7.5 7.5 0 1 0 15 0 a7.5 7.5 0 1 0 -15 0zM1316.5 852.52 a7.5 7.5 0 1 0 15 0 a7.5 7.5 0 1 0 -15 0zM1251.55 890.02 a7.5 7.5 0 1 0 15 0 a7.5 7.5 0 1 0 -15 0zM1251.55 965.02 a7.5 7.5 0 1 0 15 0 a7.5 7.5 0 1 0 -15 0zM1251.55 1115.02 a7.5 7.5 0 1 0 15 0 a7.5 7.5 0 1 0 -15 0zM1251.55 1190.02 a7.5 7.5 0 1 0 15 0 a7.5 7.5 0 1 0 -15 0zM1186.6 1227.52 a7.5 7.5 0 1 0 15 0 a7.5 7.5 0 1 0 -15 0zM1121.64 1190.02 a7.5 7.5 0 1 0 15 0 a7.5 7.5 0 1 0 -15 0zM1186.6 1302.52 a7.5 7.5 0 1 0 15 0 a7.5 7.5 0 1 0 -15 0zM1251.55 1340.02 a7.5 7.5 0 1 0 15 0 a7.5 7.5 0 1 0 -15 0zM1251.55 1415.02 a7.5 7.5 0 1 0 15 0 a7.5 7.5 0 1 0 -15 0zM1186.6 1452.52 a7.5 7.5 0 1 0 15 0 a7.5 7.5 0 1 0 -15 0zM1381.46 290.02 a7.5 7.5 0 1 0 15 0 a7.5 7.5 0 1 0 -15 0zM1446.41 327.52 a7.5 7.5 0 1 0 15 0 a7.5 7.5 0 1 0 -15 0zM1446.41 402.52 a7.5 7.5 0 1 0 15 0 a7.5 7.5 0 1 0 -15 0zM1381.46 440.02 a7.5 7.5 0 1 0 15 0 a7.5 7.5 0 1 0 -15 0zM1316.51 402.52 a7.5 7.5 0 1 0 15 0 a7.5 7.5 0 1 0 -15 0zM1316.51 327.52 a7.5 7.5 0 1 0 15 0 a7.5 7.5 0 1 0 -15 0zM1381.46 515.02 a7.5 7.5 0 1 0 15 0 a7.5 7.5 0 1 0 -15 0zM1446.41 552.52 a7.5 7.5 0 1 0 15 0 a7.5 7.5 0 1 0 -15 0zM1446.41 627.52 a7.5 7.5 0 1 0 15 0 a7.5 7.5 0 1 0 -15 0zM1381.46 665.02 a7.5 7.5 0 1 0 15 0 a7.5 7.5 0 1 0 -15 0zM1316.51 627.52 a7.5 7.5 0 1 0 15 0 a7.5 7.5 0 1 0 -15 0zM1316.51 552.52 a7.5 7.5 0 1 0 15 0 a7.5 7.5 0 1 0 -15 0zM1381.46 740.02 a7.5 7.5 0 1 0 15 0 a7.5 7.5 0 1 0 -15 0zM1446.41 777.52 a7.5 7.5 0 1 0 15 0 a7.5 7.5 0 1 0 -15 0zM1446.41 852.52 a7.5 7.5 0 1 0 15 0 a7.5 7.5 0 1 0 -15 0zM1381.46 890.02 a7.5 7.5 0 1 0 15 0 a7.5 7.5 0 1 0 -15 0zM1316.51 852.52 a7.5 7.5 0 1 0 15 0 a7.5 7.5 0 1 0 -15 0zM1316.51 777.52 a7.5 7.5 0 1 0 15 0 a7.5 7.5 0 1 0 -15 0zM1316.51 1302.52 a7.5 7.5 0 1 0 15 0 a7.5 7.5 0 1 0 -15 0zM1381.46 1340.02 a7.5 7.5 0 1 0 15 0 a7.5 7.5 0 1 0 -15 0zM1381.46 1415.02 a7.5 7.5 0 1 0 15 0 a7.5 7.5 0 1 0 -15 0zM1316.51 1452.52 a7.5 7.5 0 1 0 15 0 a7.5 7.5 0 1 0 -15 0zM1511.37 65.02 a7.5 7.5 0 1 0 15 0 a7.5 7.5 0 1 0 -15 0zM1576.32 102.52 a7.5 7.5 0 1 0 15 0 a7.5 7.5 0 1 0 -15 0zM1576.32 177.52 a7.5 7.5 0 1 0 15 0 a7.5 7.5 0 1 0 -15 0zM1511.37 215.02 a7.5 7.5 0 1 0 15 0 a7.5 7.5 0 1 0 -15 0zM1446.41 177.52 a7.5 7.5 0 1 0 15 0 a7.5 7.5 0 1 0 -15 0zM1446.41 102.52 a7.5 7.5 0 1 0 15 0 a7.5 7.5 0 1 0 -15 0zM1511.37 440.02 a7.5 7.5 0 1 0 15 0 a7.5 7.5 0 1 0 -15 0zM1511.37 515.02 a7.5 7.5 0 1 0 15 0 a7.5 7.5 0 1 0 -15 0zM1641.27 65.02 a7.5 7.5 0 1 0 15 0 a7.5 7.5 0 1 0 -15 0zM1706.23 102.52 a7.5 7.5 0 1 0 15 0 a7.5 7.5 0 1 0 -15 0zM1706.23 177.52 a7.5 7.5 0 1 0 15 0 a7.5 7.5 0 1 0 -15 0zM1641.27 215.02 a7.5 7.5 0 1 0 15 0 a7.5 7.5 0 1 0 -15 0zM1576.32 627.52 a7.5 7.5 0 1 0 15 0 a7.5 7.5 0 1 0 -15 0zM1641.27 665.02 a7.5 7.5 0 1 0 15 0 a7.5 7.5 0 1 0 -15 0zM1641.27 740.02 a7.5 7.5 0 1 0 15 0 a7.5 7.5 0 1 0 -15 0zM1576.32 777.52 a7.5 7.5 0 1 0 15 0 a7.5 7.5 0 1 0 -15 0zM1511.37 740.02 a7.5 7.5 0 1 0 15 0 a7.5 7.5 0 1 0 -15 0zM1511.37 665.02 a7.5 7.5 0 1 0 15 0 a7.5 7.5 0 1 0 -15 0zM1706.23 777.52 a7.5 7.5 0 1 0 15 0 a7.5 7.5 0 1 0 -15 0zM1706.23 852.52 a7.5 7.5 0 1 0 15 0 a7.5 7.5 0 1 0 -15 0zM1641.27 890.02 a7.5 7.5 0 1 0 15 0 a7.5 7.5 0 1 0 -15 0zM1576.32 852.52 a7.5 7.5 0 1 0 15 0 a7.5 7.5 0 1 0 -15 0zM1576.32 1302.52 a7.5 7.5 0 1 0 15 0 a7.5 7.5 0 1 0 -15 0zM1641.27 1340.02 a7.5 7.5 0 1 0 15 0 a7.5 7.5 0 1 0 -15 0zM1641.27 1415.02 a7.5 7.5 0 1 0 15 0 a7.5 7.5 0 1 0 -15 0zM1576.32 1452.52 a7.5 7.5 0 1 0 15 0 a7.5 7.5 0 1 0 -15 0zM1511.37 1415.02 a7.5 7.5 0 1 0 15 0 a7.5 7.5 0 1 0 -15 0zM1511.37 1340.02 a7.5 7.5 0 1 0 15 0 a7.5 7.5 0 1 0 -15 0zM1706.23 -47.48 a7.5 7.5 0 1 0 15 0 a7.5 7.5 0 1 0 -15 0zM1771.18 -9.98 a7.5 7.5 0 1 0 15 0 a7.5 7.5 0 1 0 -15 0zM1771.18 65.02 a7.5 7.5 0 1 0 15 0 a7.5 7.5 0 1 0 -15 0zM1641.27 -9.98 a7.5 7.5 0 1 0 15 0 a7.5 7.5 0 1 0 -15 0zM1771.18 215.02 a7.5 7.5 0 1 0 15 0 a7.5 7.5 0 1 0 -15 0zM1771.18 290.02 a7.5 7.5 0 1 0 15 0 a7.5 7.5 0 1 0 -15 0zM1706.23 327.52 a7.5 7.5 0 1 0 15 0 a7.5 7.5 0 1 0 -15 0zM1641.27 290.02 a7.5 7.5 0 1 0 15 0 a7.5 7.5 0 1 0 -15 0zM1836.13 327.52 a7.5 7.5 0 1 0 15 0 a7.5 7.5 0 1 0 -15 0zM1836.13 402.52 a7.5 7.5 0 1 0 15 0 a7.5 7.5 0 1 0 -15 0zM1771.18 440.02 a7.5 7.5 0 1 0 15 0 a7.5 7.5 0 1 0 -15 0zM1706.23 402.52 a7.5 7.5 0 1 0 15 0 a7.5 7.5 0 1 0 -15 0zM1771.18 515.02 a7.5 7.5 0 1 0 15 0 a7.5 7.5 0 1 0 -15 0zM1706.23 552.52 a7.5 7.5 0 1 0 15 0 a7.5 7.5 0 1 0 -15 0zM1641.27 515.02 a7.5 7.5 0 1 0 15 0 a7.5 7.5 0 1 0 -15 0zM1641.27 440.02 a7.5 7.5 0 1 0 15 0 a7.5 7.5 0 1 0 -15 0zM1771.18 890.02 a7.5 7.5 0 1 0 15 0 a7.5 7.5 0 1 0 -15 0zM1771.18 965.02 a7.5 7.5 0 1 0 15 0 a7.5 7.5 0 1 0 -15 0zM1706.23 1002.52 a7.5 7.5 0 1 0 15 0 a7.5 7.5 0 1 0 -15 0zM1641.27 965.02 a7.5 7.5 0 1 0 15 0 a7.5 7.5 0 1 0 -15 0zM1706.23 1077.52 a7.5 7.5 0 1 0 15 0 a7.5 7.5 0 1 0 -15 0zM1771.18 1115.02 a7.5 7.5 0 1 0 15 0 a7.5 7.5 0 1 0 -15 0zM1771.18 1190.02 a7.5 7.5 0 1 0 15 0 a7.5 7.5 0 1 0 -15 0zM1706.23 1227.52 a7.5 7.5 0 1 0 15 0 a7.5 7.5 0 1 0 -15 0zM1641.27 1190.02 a7.5 7.5 0 1 0 15 0 a7.5 7.5 0 1 0 -15 0zM1641.27 1115.02 a7.5 7.5 0 1 0 15 0 a7.5 7.5 0 1 0 -15 0zM1706.23 1302.52 a7.5 7.5 0 1 0 15 0 a7.5 7.5 0 1 0 -15 0zM1771.18 1340.02 a7.5 7.5 0 1 0 15 0 a7.5 7.5 0 1 0 -15 0zM1771.18 1415.02 a7.5 7.5 0 1 0 15 0 a7.5 7.5 0 1 0 -15 0zM1706.23 1452.52 a7.5 7.5 0 1 0 15 0 a7.5 7.5 0 1 0 -15 0zM1901.09 290.02 a7.5 7.5 0 1 0 15 0 a7.5 7.5 0 1 0 -15 0zM1966.04 327.52 a7.5 7.5 0 1 0 15 0 a7.5 7.5 0 1 0 -15 0zM1966.04 402.52 a7.5 7.5 0 1 0 15 0 a7.5 7.5 0 1 0 -15 0zM1901.09 440.02 a7.5 7.5 0 1 0 15 0 a7.5 7.5 0 1 0 -15 0zM1901.09 515.02 a7.5 7.5 0 1 0 15 0 a7.5 7.5 0 1 0 -15 0zM1966.04 552.52 a7.5 7.5 0 1 0 15 0 a7.5 7.5 0 1 0 -15 0zM1966.04 627.52 a7.5 7.5 0 1 0 15 0 a7.5 7.5 0 1 0 -15 0zM1901.09 665.02 a7.5 7.5 0 1 0 15 0 a7.5 7.5 0 1 0 -15 0zM1836.13 627.52 a7.5 7.5 0 1 0 15 0 a7.5 7.5 0 1 0 -15 0zM1836.13 552.52 a7.5 7.5 0 1 0 15 0 a7.5 7.5 0 1 0 -15 0zM1901.09 740.02 a7.5 7.5 0 1 0 15 0 a7.5 7.5 0 1 0 -15 0zM1966.04 777.52 a7.5 7.5 0 1 0 15 0 a7.5 7.5 0 1 0 -15 0zM1966.04 852.52 a7.5 7.5 0 1 0 15 0 a7.5 7.5 0 1 0 -15 0zM1901.09 890.02 a7.5 7.5 0 1 0 15 0 a7.5 7.5 0 1 0 -15 0zM1836.13 852.52 a7.5 7.5 0 1 0 15 0 a7.5 7.5 0 1 0 -15 0zM1836.13 777.52 a7.5 7.5 0 1 0 15 0 a7.5 7.5 0 1 0 -15 0zM1901.09 965.02 a7.5 7.5 0 1 0 15 0 a7.5 7.5 0 1 0 -15 0zM1836.13 1002.52 a7.5 7.5 0 1 0 15 0 a7.5 7.5 0 1 0 -15 0zM1836.13 1302.52 a7.5 7.5 0 1 0 15 0 a7.5 7.5 0 1 0 -15 0zM1901.09 1340.02 a7.5 7.5 0 1 0 15 0 a7.5 7.5 0 1 0 -15 0zM1901.09 1415.02 a7.5 7.5 0 1 0 15 0 a7.5 7.5 0 1 0 -15 0zM1836.13 1452.52 a7.5 7.5 0 1 0 15 0 a7.5 7.5 0 1 0 -15 0z" fill="#03305d"></path><path d="M27.67 -18.75L70.97 6.25L70.97 56.25L27.67 81.25L-15.63 56.25L-15.63 6.25zM70.97 56.25L114.28 81.25L114.28 131.25L70.97 156.25L27.67 131.25L27.67 81.25zM70.97 506.25L114.28 531.25L114.28 581.25L70.97 606.25L27.67 581.25L27.67 531.25zM27.67 581.25L70.97 606.25L70.97 656.25L27.67 681.25L-15.63 656.25L-15.63 606.25zM70.97 956.25L114.28 981.25L114.28 1031.25L70.97 1056.25L27.67 1031.25L27.67 981.25zM27.67 1031.25L70.97 1056.25L70.97 1106.25L27.67 1131.25L-15.63 1106.25L-15.63 1056.25zM27.67 1181.25L70.97 1206.25L70.97 1256.25L27.67 1281.25L-15.63 1256.25L-15.63 1206.25zM114.28 -18.75L157.58 6.25L157.58 56.25L114.28 81.25L70.97 56.25L70.97 6.25zM114.28 131.25L157.58 156.25L157.58 206.25L114.28 231.25L70.97 206.25L70.97 156.25zM157.58 506.25L200.88 531.25L200.88 581.25L157.58 606.25L114.28 581.25L114.28 531.25zM157.58 806.25L200.88 831.25L200.88 881.25L157.58 906.25L114.28 881.25L114.28 831.25zM114.28 881.25L157.58 906.25L157.58 956.25L114.28 981.25L70.97 956.25L70.97 906.25zM157.58 1256.25L200.88 1281.25L200.88 1331.25L157.58 1356.25L114.28 1331.25L114.28 1281.25zM200.88 131.25L244.18 156.25L244.18 206.25L200.88 231.25L157.58 206.25L157.58 156.25zM200.88 431.25L244.18 456.25L244.18 506.25L200.88 531.25L157.58 506.25L157.58 456.25zM200.88 731.25L244.18 756.25L244.18 806.25L200.88 831.25L157.58 806.25L157.58 756.25zM244.18 956.25L287.49 981.25L287.49 1031.25L244.18 1056.25L200.88 1031.25L200.88 981.25zM200.88 1031.25L244.18 1056.25L244.18 1106.25L200.88 1131.25L157.58 1106.25L157.58 1056.25zM287.49 -18.75L330.79 6.25L330.79 56.25L287.49 81.25L244.18 56.25L244.18 6.25zM287.49 581.25L330.79 606.25L330.79 656.25L287.49 681.25L244.18 656.25L244.18 606.25zM330.79 956.25L374.09 981.25L374.09 1031.25L330.79 1056.25L287.49 1031.25L287.49 981.25zM330.79 1106.25L374.09 1131.25L374.09 1181.25L330.79 1206.25L287.49 1181.25L287.49 1131.25zM330.79 1256.25L374.09 1281.25L374.09 1331.25L330.79 1356.25L287.49 1331.25L287.49 1281.25zM374.09 -18.75L417.39 6.25L417.39 56.25L374.09 81.25L330.79 56.25L330.79 6.25zM374.09 281.25L417.39 306.25L417.39 356.25L374.09 381.25L330.79 356.25L330.79 306.25zM417.39 356.25L460.7 381.25L460.7 431.25L417.39 456.25L374.09 431.25L374.09 381.25zM374.09 731.25L417.39 756.25L417.39 806.25L374.09 831.25L330.79 806.25L330.79 756.25zM374.09 881.25L417.39 906.25L417.39 956.25L374.09 981.25L330.79 956.25L330.79 906.25zM504 356.25L547.3 381.25L547.3 431.25L504 456.25L460.7 431.25L460.7 381.25zM504 956.25L547.3 981.25L547.3 1031.25L504 1056.25L460.7 1031.25L460.7 981.25zM504 1256.25L547.3 1281.25L547.3 1331.25L504 1356.25L460.7 1331.25L460.7 1281.25zM547.3 131.25L590.6 156.25L590.6 206.25L547.3 231.25L504 206.25L504 156.25zM590.6 206.25L633.9 231.25L633.9 281.25L590.6 306.25L547.3 281.25L547.3 231.25zM590.6 656.25L633.9 681.25L633.9 731.25L590.6 756.25L547.3 731.25L547.3 681.25zM547.3 731.25L590.6 756.25L590.6 806.25L547.3 831.25L504 806.25L504 756.25zM590.6 1256.25L633.9 1281.25L633.9 1331.25L590.6 1356.25L547.3 1331.25L547.3 1281.25zM633.9 731.25L677.21 756.25L677.21 806.25L633.9 831.25L590.6 806.25L590.6 756.25zM763.81 506.25L807.12 531.25L807.12 581.25L763.81 606.25L720.51 581.25L720.51 531.25zM763.81 656.25L807.12 681.25L807.12 731.25L763.81 756.25L720.51 731.25L720.51 681.25zM720.51 731.25L763.81 756.25L763.81 806.25L720.51 831.25L677.21 806.25L677.21 756.25zM763.81 1106.25L807.12 1131.25L807.12 1181.25L763.81 1206.25L720.51 1181.25L720.51 1131.25zM807.12 131.25L850.42 156.25L850.42 206.25L807.12 231.25L763.81 206.25L763.81 156.25zM807.12 281.25L850.42 306.25L850.42 356.25L807.12 381.25L763.81 356.25L763.81 306.25zM850.42 356.25L893.72 381.25L893.72 431.25L850.42 456.25L807.12 431.25L807.12 381.25zM807.12 431.25L850.42 456.25L850.42 506.25L807.12 531.25L763.81 506.25L763.81 456.25zM850.42 506.25L893.72 531.25L893.72 581.25L850.42 606.25L807.12 581.25L807.12 531.25zM807.12 731.25L850.42 756.25L850.42 806.25L807.12 831.25L763.81 806.25L763.81 756.25zM807.12 881.25L850.42 906.25L850.42 956.25L807.12 981.25L763.81 956.25L763.81 906.25zM850.42 956.25L893.72 981.25L893.72 1031.25L850.42 1056.25L807.12 1031.25L807.12 981.25zM937.02 56.25L980.33 81.25L980.33 131.25L937.02 156.25L893.72 131.25L893.72 81.25zM937.02 356.25L980.33 381.25L980.33 431.25L937.02 456.25L893.72 431.25L893.72 381.25zM893.72 731.25L937.02 756.25L937.02 806.25L893.72 831.25L850.42 806.25L850.42 756.25zM893.72 1181.25L937.02 1206.25L937.02 1256.25L893.72 1281.25L850.42 1256.25L850.42 1206.25zM1023.63 56.25L1066.93 81.25L1066.93 131.25L1023.63 156.25L980.33 131.25L980.33 81.25zM980.33 731.25L1023.63 756.25L1023.63 806.25L980.33 831.25L937.02 806.25L937.02 756.25zM1110.23 206.25L1153.54 231.25L1153.54 281.25L1110.23 306.25L1066.93 281.25L1066.93 231.25zM1066.93 581.25L1110.23 606.25L1110.23 656.25L1066.93 681.25L1023.63 656.25L1023.63 606.25zM1110.23 806.25L1153.54 831.25L1153.54 881.25L1110.23 906.25L1066.93 881.25L1066.93 831.25zM1110.23 956.25L1153.54 981.25L1153.54 1031.25L1110.23 1056.25L1066.93 1031.25L1066.93 981.25zM1196.84 956.25L1240.14 981.25L1240.14 1031.25L1196.84 1056.25L1153.54 1031.25L1153.54 981.25zM1153.54 1031.25L1196.84 1056.25L1196.84 1106.25L1153.54 1131.25L1110.23 1106.25L1110.23 1056.25zM1196.84 1106.25L1240.14 1131.25L1240.14 1181.25L1196.84 1206.25L1153.54 1181.25L1153.54 1131.25zM1153.54 1181.25L1196.84 1206.25L1196.84 1256.25L1153.54 1281.25L1110.23 1256.25L1110.23 1206.25zM1283.44 356.25L1326.75 381.25L1326.75 431.25L1283.44 456.25L1240.14 431.25L1240.14 381.25zM1283.44 506.25L1326.75 531.25L1326.75 581.25L1283.44 606.25L1240.14 581.25L1240.14 531.25zM1240.14 731.25L1283.44 756.25L1283.44 806.25L1240.14 831.25L1196.84 806.25L1196.84 756.25zM1240.14 881.25L1283.44 906.25L1283.44 956.25L1240.14 981.25L1196.84 956.25L1196.84 906.25zM1283.44 1256.25L1326.75 1281.25L1326.75 1331.25L1283.44 1356.25L1240.14 1331.25L1240.14 1281.25zM1370.05 206.25L1413.35 231.25L1413.35 281.25L1370.05 306.25L1326.75 281.25L1326.75 231.25zM1370.05 356.25L1413.35 381.25L1413.35 431.25L1370.05 456.25L1326.75 431.25L1326.75 381.25zM1326.75 581.25L1370.05 606.25L1370.05 656.25L1326.75 681.25L1283.44 656.25L1283.44 606.25zM1326.75 731.25L1370.05 756.25L1370.05 806.25L1326.75 831.25L1283.44 806.25L1283.44 756.25zM1370.05 956.25L1413.35 981.25L1413.35 1031.25L1370.05 1056.25L1326.75 1031.25L1326.75 981.25zM1456.65 56.25L1499.96 81.25L1499.96 131.25L1456.65 156.25L1413.35 131.25L1413.35 81.25zM1456.65 506.25L1499.96 531.25L1499.96 581.25L1456.65 606.25L1413.35 581.25L1413.35 531.25zM1413.35 881.25L1456.65 906.25L1456.65 956.25L1413.35 981.25L1370.05 956.25L1370.05 906.25zM1543.26 56.25L1586.56 81.25L1586.56 131.25L1543.26 156.25L1499.96 131.25L1499.96 81.25zM1543.26 206.25L1586.56 231.25L1586.56 281.25L1543.26 306.25L1499.96 281.25L1499.96 231.25zM1586.56 731.25L1629.86 756.25L1629.86 806.25L1586.56 831.25L1543.26 806.25L1543.26 756.25zM1629.86 806.25L1673.17 831.25L1673.17 881.25L1629.86 906.25L1586.56 881.25L1586.56 831.25zM1716.47 206.25L1759.77 231.25L1759.77 281.25L1716.47 306.25L1673.17 281.25L1673.17 231.25zM1673.17 431.25L1716.47 456.25L1716.47 506.25L1673.17 531.25L1629.86 506.25L1629.86 456.25zM1716.47 806.25L1759.77 831.25L1759.77 881.25L1716.47 906.25L1673.17 881.25L1673.17 831.25zM1673.17 881.25L1716.47 906.25L1716.47 956.25L1673.17 981.25L1629.86 956.25L1629.86 906.25zM1803.07 56.25L1846.38 81.25L1846.38 131.25L1803.07 156.25L1759.77 131.25L1759.77 81.25zM1759.77 731.25L1803.07 756.25L1803.07 806.25L1759.77 831.25L1716.47 806.25L1716.47 756.25zM1803.07 1256.25L1846.38 1281.25L1846.38 1331.25L1803.07 1356.25L1759.77 1331.25L1759.77 1281.25zM1846.38 581.25L1889.68 606.25L1889.68 656.25L1846.38 681.25L1803.07 656.25L1803.07 606.25zM1889.68 1106.25L1932.98 1131.25L1932.98 1181.25L1889.68 1206.25L1846.38 1181.25L1846.38 1131.25z" stroke="rgba(6, 80, 156, 0.93)" stroke-width="2"></path></g><defs><mask id="SvgjsMask1010"><rect width="1900" height="1296" fill="#ffffff"></rect></mask></defs></svg>